# xmcd
#
# Track frame offsets:
#	150
#	13907
#	26539
#	38440
#	49088
#	60988
#	73182
#	85305
#	97586
#	108800
#	120618
#	134217
#	148357
#	160355
#	170695
#	182717
#	196036
#	206702
#	217640
#	229046
#	240511
#	251697
#	261464
#	274541
#	289198
#	300135
#	308732
#
# Disc length: 4309 seconds
#
# Revision: 1
# Processed by: cddbd v1.5.1PL2 Copyright (c) Steve Scherf et al.
# Submitted via: EasyCDDAExtractor 9.1.3.1
#
DISCID=7910d31b
DTITLE=Various Artist - Shake That Thing! (East Coast Blues, 1935-53) - Disc 
DTITLE=D (1950-53)
DYEAR=2006
DGENRE=Blues
TTITLE0=Ralph Willis - Blues, Blues, Blues
TTITLE1=Ralph Willis - I Got A Letter
TTITLE2=Ralph Willis - Too Late To Scream And Shout
TTITLE3=Ralph Willis - Hoodoo Man
TTITLE4=Ralph Willis - Income Tax Blues
TTITLE5=Ralph Willis - Bed Tick Blues
TTITLE6=Ralph Willis - Cold Chills
TTITLE7=Ralph Willis - Black And Tan
TTITLE8=Ralph Willis - Church Bell Blues
TTITLE9=Ralph Willis - Tell Me Pretty Baby
TTITLE10=Ralph Willis - Goodbye Blues
TTITLE11=Ralph Willis - Lazy Woman Blues
TTITLE12=Ralph Willis - Old Home Blues
TTITLE13=Ralph Willis - Salty Dog
TTITLE14=Ralph Willis - Cold Chills
TTITLE15=Ralph Willis - Amen
TTITLE16=Ralph Willis - Gonna Hop On Down The Line
TTITLE17=Ralph Willis - Do Right
TTITLE18=Ralph Willis - Door Bell Blues
TTITLE19=Ralph Willis - Why'd You Do It
TTITLE20=Dan Pickett - Early One Morning
TTITLE21=Dan Pickett - Number Writer
TTITLE22=Dan Pickett - Lemon Man
TTITLE23=Dan Pickett - Laughing Blues
TTITLE24=Dan Pickett - Number Writer (Take 1)
TTITLE25=Dan Pickett - I Can Shake It
TTITLE26=Dan Pickett - Drivin' That Thing (Alt.)
EXTD=
EXTT0=
EXTT1=
EXTT2=
EXTT3=
EXTT4=
EXTT5=
EXTT6=
EXTT7=
EXTT8=
EXTT9=
EXTT10=
EXTT11=
EXTT12=
EXTT13=
EXTT14=
EXTT15=
EXTT16=
EXTT17=
EXTT18=
EXTT19=
EXTT20=
EXTT21=
EXTT22=
EXTT23=
EXTT24=
EXTT25=
EXTT26=
PLAYORDER=
